<?xml version="1.0" encoding="UTF-8" standalone="no"?>
<!DOCTYPE svg PUBLIC "-//W3C//DTD SVG 1.1//EN"
 "http://www.w3.org/Graphics/SVG/1.1/DTD/svg11.dtd">
<!-- Generated by graphviz version 2.47.0 (20210316.0004)
 -->
<!-- Title: dependencies Pages: 1 -->
<svg width="905pt" height="284pt"
 viewBox="0.00 0.00 905.00 284.00" xmlns="http://www.w3.org/2000/svg" xmlns:xlink="http://www.w3.org/1999/xlink">
<g id="graph0" class="graph" transform="scale(1 1) rotate(0) translate(4 280)">
<title>dependencies</title>
<polygon fill="white" stroke="transparent" points="-4,4 -4,-280 901,-280 901,4 -4,4"/>
<text text-anchor="start" x="427.51" y="-42.4" font-family="Times-12" font-weight="bold" font-size="14.00">Legend</text>
<polygon fill="#ffffb3" stroke="transparent" points="214.5,-10 214.5,-30 234.5,-30 234.5,-10 214.5,-10"/>
<text text-anchor="start" x="238.13" y="-15.4" font-family="Times-12" font-size="14.00"> &#160;Declarations</text>
<polygon fill="#8dd3c7" stroke="transparent" points="327.5,-10 327.5,-30 347.5,-30 347.5,-10 327.5,-10"/>
<text text-anchor="start" x="351.23" y="-15.4" font-family="Times-12" font-size="14.00"> &#160;Module</text>
<polygon fill="#80b1d3" stroke="transparent" points="413.5,-10 413.5,-30 433.5,-30 433.5,-10 413.5,-10"/>
<text text-anchor="start" x="437.28" y="-15.4" font-family="Times-12" font-size="14.00"> &#160;Bootstrap</text>
<polygon fill="#fdb462" stroke="transparent" points="510.5,-10 510.5,-30 530.5,-30 530.5,-10 510.5,-10"/>
<text text-anchor="start" x="534.17" y="-15.4" font-family="Times-12" font-size="14.00"> &#160;Providers</text>
<polygon fill="#fb8072" stroke="transparent" points="606.5,-10 606.5,-30 626.5,-30 626.5,-10 606.5,-10"/>
<text text-anchor="start" x="630.23" y="-15.4" font-family="Times-12" font-size="14.00"> &#160;Exports</text>
<g id="clust1" class="cluster">
<title>cluster_AppModule</title>
<polygon fill="none" stroke="black" stroke-dasharray="1,5" points="8,-70 8,-268 889,-268 889,-70 8,-70"/>
</g>
<g id="clust8" class="cluster">
<title>cluster_AppModule_imports</title>
<polygon fill="none" stroke="black" points="737,-78 737,-130 881,-130 881,-78 737,-78"/>
</g>
<g id="clust10" class="cluster">
<title>cluster_AppModule_bootstrap</title>
<polygon fill="none" stroke="black" points="378,-208 378,-260 502,-260 502,-208 378,-208"/>
</g>
<g id="clust2" class="cluster">
<title>cluster_AppModule_declarations</title>
<polygon fill="none" stroke="black" points="16,-78 16,-130 729,-130 729,-78 16,-78"/>
</g>
<!-- AppComponent -->
<g id="node1" class="node">
<title>AppComponent</title>
<polygon fill="#ffffb3" stroke="black" points="720.94,-122 615.06,-122 615.06,-86 720.94,-86 720.94,-122"/>
<text text-anchor="middle" x="668" y="-99.8" font-family="Times,serif" font-size="14.00">AppComponent</text>
</g>
<!-- AppModule -->
<g id="node6" class="node">
<title>AppModule</title>
<polygon fill="#8dd3c7" stroke="black" points="481.66,-187 478.66,-191 457.66,-191 454.66,-187 398.34,-187 398.34,-151 481.66,-151 481.66,-187"/>
<text text-anchor="middle" x="440" y="-164.8" font-family="Times,serif" font-size="14.00">AppModule</text>
</g>
<!-- AppComponent&#45;&gt;AppModule -->
<g id="edge1" class="edge">
<title>AppComponent&#45;&gt;AppModule</title>
<path fill="none" stroke="black" d="M668,-122.02C668,-139.37 668,-163 668,-163 668,-163 491.82,-163 491.82,-163"/>
<polygon fill="black" stroke="black" points="491.82,-159.5 481.82,-163 491.82,-166.5 491.82,-159.5"/>
</g>
<!-- CalcularFreteComponent -->
<g id="node2" class="node">
<title>CalcularFreteComponent</title>
<polygon fill="#ffffb3" stroke="black" points="597.52,-122 440.48,-122 440.48,-86 597.52,-86 597.52,-122"/>
<text text-anchor="middle" x="519" y="-99.8" font-family="Times,serif" font-size="14.00">CalcularFreteComponent</text>
</g>
<!-- CalcularFreteComponent&#45;&gt;AppModule -->
<g id="edge2" class="edge">
<title>CalcularFreteComponent&#45;&gt;AppModule</title>
<path fill="none" stroke="black" d="M461.03,-122.11C461.03,-122.11 461.03,-140.99 461.03,-140.99"/>
<polygon fill="black" stroke="black" points="457.53,-140.99 461.03,-150.99 464.53,-140.99 457.53,-140.99"/>
</g>
<!-- CepMaskDirective -->
<g id="node3" class="node">
<title>CepMaskDirective</title>
<polygon fill="#ffffb3" stroke="black" points="421.74,-122 300.26,-122 300.26,-86 421.74,-86 421.74,-122"/>
<text text-anchor="middle" x="361" y="-99.8" font-family="Times,serif" font-size="14.00">CepMaskDirective</text>
</g>
<!-- CepMaskDirective&#45;&gt;AppModule -->
<g id="edge3" class="edge">
<title>CepMaskDirective&#45;&gt;AppModule</title>
<path fill="none" stroke="black" d="M410.02,-122.11C410.02,-122.11 410.02,-140.99 410.02,-140.99"/>
<polygon fill="black" stroke="black" points="406.52,-140.99 410.02,-150.99 413.52,-140.99 406.52,-140.99"/>
</g>
<!-- FooterComponent -->
<g id="node4" class="node">
<title>FooterComponent</title>
<polygon fill="#ffffb3" stroke="black" points="281.88,-122 164.12,-122 164.12,-86 281.88,-86 281.88,-122"/>
<text text-anchor="middle" x="223" y="-99.8" font-family="Times,serif" font-size="14.00">FooterComponent</text>
</g>
<!-- FooterComponent&#45;&gt;AppModule -->
<g id="edge4" class="edge">
<title>FooterComponent&#45;&gt;AppModule</title>
<path fill="none" stroke="black" d="M223,-122.02C223,-139.37 223,-163 223,-163 223,-163 388.16,-163 388.16,-163"/>
<polygon fill="black" stroke="black" points="388.16,-166.5 398.16,-163 388.16,-159.5 388.16,-166.5"/>
</g>
<!-- NavbarComponent -->
<g id="node5" class="node">
<title>NavbarComponent</title>
<polygon fill="#ffffb3" stroke="black" points="146.03,-122 23.97,-122 23.97,-86 146.03,-86 146.03,-122"/>
<text text-anchor="middle" x="85" y="-99.8" font-family="Times,serif" font-size="14.00">NavbarComponent</text>
</g>
<!-- NavbarComponent&#45;&gt;AppModule -->
<g id="edge5" class="edge">
<title>NavbarComponent&#45;&gt;AppModule</title>
<path fill="none" stroke="black" d="M85,-122.28C85,-143.32 85,-175 85,-175 85,-175 388.23,-175 388.23,-175"/>
<polygon fill="black" stroke="black" points="388.23,-178.5 398.23,-175 388.23,-171.5 388.23,-178.5"/>
</g>
<!-- AppComponent  -->
<g id="node8" class="node">
<title>AppComponent </title>
<polygon fill="#80b1d3" stroke="black" points="494.44,-252 385.56,-252 385.56,-216 494.44,-216 494.44,-252"/>
<text text-anchor="middle" x="440" y="-229.8" font-family="Times,serif" font-size="14.00">AppComponent </text>
</g>
<!-- AppModule&#45;&gt;AppComponent  -->
<g id="edge7" class="edge">
<title>AppModule&#45;&gt;AppComponent </title>
<path fill="none" stroke="black" stroke-dasharray="1,5" d="M440,-187.11C440,-187.11 440,-205.99 440,-205.99"/>
<polygon fill="black" stroke="black" points="436.5,-205.99 440,-215.99 443.5,-205.99 436.5,-205.99"/>
</g>
<!-- AppRoutingModule -->
<g id="node7" class="node">
<title>AppRoutingModule</title>
<polygon fill="#8dd3c7" stroke="black" points="873.27,-122 870.27,-126 849.27,-126 846.27,-122 744.73,-122 744.73,-86 873.27,-86 873.27,-122"/>
<text text-anchor="middle" x="809" y="-99.8" font-family="Times,serif" font-size="14.00">AppRoutingModule</text>
</g>
<!-- AppRoutingModule&#45;&gt;AppModule -->
<g id="edge6" class="edge">
<title>AppRoutingModule&#45;&gt;AppModule</title>
<path fill="none" stroke="black" d="M809,-122.28C809,-143.32 809,-175 809,-175 809,-175 491.97,-175 491.97,-175"/>
<polygon fill="black" stroke="black" points="491.97,-171.5 481.97,-175 491.97,-178.5 491.97,-171.5"/>
</g>
</g>
</svg>
