<?xml version="1.0" encoding="UTF-8" standalone="no"?>
<!DOCTYPE svg PUBLIC "-//W3C//DTD SVG 1.1//EN"
 "http://www.w3.org/Graphics/SVG/1.1/DTD/svg11.dtd">
<!-- Generated by graphviz version 2.47.0 (20210316.0004)
 -->
<!-- Title: dependencies Pages: 1 -->
<svg width="905pt" height="284pt"
 viewBox="0.00 0.00 905.00 284.00" xmlns="http://www.w3.org/2000/svg" xmlns:xlink="http://www.w3.org/1999/xlink">
<g id="graph0" class="graph" transform="scale(1 1) rotate(0) translate(4 280)">
<title>dependencies</title>
<polygon fill="white" stroke="transparent" points="-4,4 -4,-280 901,-280 901,4 -4,4"/>
<text text-anchor="start" x="427.51" y="-42.4" font-family="Times-12" font-weight="bold" font-size="14.00">Legend</text>
<polygon fill="#ffffb3" stroke="transparent" points="214.5,-10 214.5,-30 234.5,-30 234.5,-10 214.5,-10"/>
<text text-anchor="start" x="238.13" y="-15.4" font-family="Times-12" font-size="14.00"> &#160;Declarations</text>
<polygon fill="#8dd3c7" stroke="transparent" points="327.5,-10 327.5,-30 347.5,-30 347.5,-10 327.5,-10"/>
<text text-anchor="start" x="351.23" y="-15.4" font-family="Times-12" font-size="14.00"> &#160;Module</text>
<polygon fill="#80b1d3" stroke="transparent" points="413.5,-10 413.5,-30 433.5,-30 433.5,-10 413.5,-10"/>
<text text-anchor="start" x="437.28" y="-15.4" font-family="Times-12" font-size="14.00"> &#160;Bootstrap</text>
<polygon fill="#fdb462" stroke="transparent" points="510.5,-10 510.5,-30 530.5,-30 530.5,-10 510.5,-10"/>
<text text-anchor="start" x="534.17" y="-15.4" font-family="Times-12" font-size="14.00"> &#160;Providers</text>
<polygon fill="#fb8072" stroke="transparent" points="606.5,-10 606.5,-30 626.5,-30 626.5,-10 606.5,-10"/>
<text text-anchor="start" x="630.23" y="-15.4" font-family="Times-12" font-size="14.00"> &#160;Exports</text>
<g id="clust1" class="cluster">
<title>cluster_AppModule</title>
<polygon fill="none" stroke="black" stroke-dasharray="1,5" points="8,-70 8,-268 889,-268 889,-70 8,-70"/>
</g>
<g id="clust2" class="cluster">
<title>cluster_AppModule_declarations</title>
<polygon fill="none" stroke="black" points="168,-78 168,-130 881,-130 881,-78 168,-78"/>
</g>
<g id="clust8" class="cluster">
<title>cluster_AppModule_imports</title>
<polygon fill="none" stroke="black" points="16,-78 16,-130 160,-130 160,-78 16,-78"/>
</g>
<g id="clust10" class="cluster">
<title>cluster_AppModule_bootstrap</title>
<polygon fill="none" stroke="black" points="382,-208 382,-260 506,-260 506,-208 382,-208"/>
</g>
<!-- AppComponent -->
<g id="node1" class="node">
<title>AppComponent</title>
<polygon fill="#ffffb3" stroke="black" points="872.94,-122 767.06,-122 767.06,-86 872.94,-86 872.94,-122"/>
<text text-anchor="middle" x="820" y="-99.8" font-family="Times,serif" font-size="14.00">AppComponent</text>
</g>
<!-- AppModule -->
<g id="node6" class="node">
<title>AppModule</title>
<polygon fill="#8dd3c7" stroke="black" points="485.66,-187 482.66,-191 461.66,-191 458.66,-187 402.34,-187 402.34,-151 485.66,-151 485.66,-187"/>
<text text-anchor="middle" x="444" y="-164.8" font-family="Times,serif" font-size="14.00">AppModule</text>
</g>
<!-- AppComponent&#45;&gt;AppModule -->
<g id="edge1" class="edge">
<title>AppComponent&#45;&gt;AppModule</title>
<path fill="none" stroke="black" d="M820,-122.28C820,-143.32 820,-175 820,-175 820,-175 495.68,-175 495.68,-175"/>
<polygon fill="black" stroke="black" points="495.68,-171.5 485.68,-175 495.68,-178.5 495.68,-171.5"/>
</g>
<!-- CalcularFreteComponent -->
<g id="node2" class="node">
<title>CalcularFreteComponent</title>
<polygon fill="#ffffb3" stroke="black" points="749.52,-122 592.48,-122 592.48,-86 749.52,-86 749.52,-122"/>
<text text-anchor="middle" x="671" y="-99.8" font-family="Times,serif" font-size="14.00">CalcularFreteComponent</text>
</g>
<!-- CalcularFreteComponent&#45;&gt;AppModule -->
<g id="edge2" class="edge">
<title>CalcularFreteComponent&#45;&gt;AppModule</title>
<path fill="none" stroke="black" d="M671,-122.02C671,-139.37 671,-163 671,-163 671,-163 495.9,-163 495.9,-163"/>
<polygon fill="black" stroke="black" points="495.9,-159.5 485.9,-163 495.9,-166.5 495.9,-159.5"/>
</g>
<!-- CepMaskDirective -->
<g id="node3" class="node">
<title>CepMaskDirective</title>
<polygon fill="#ffffb3" stroke="black" points="573.74,-122 452.26,-122 452.26,-86 573.74,-86 573.74,-122"/>
<text text-anchor="middle" x="513" y="-99.8" font-family="Times,serif" font-size="14.00">CepMaskDirective</text>
</g>
<!-- CepMaskDirective&#45;&gt;AppModule -->
<g id="edge3" class="edge">
<title>CepMaskDirective&#45;&gt;AppModule</title>
<path fill="none" stroke="black" d="M468.98,-122.11C468.98,-122.11 468.98,-140.99 468.98,-140.99"/>
<polygon fill="black" stroke="black" points="465.48,-140.99 468.98,-150.99 472.48,-140.99 465.48,-140.99"/>
</g>
<!-- FooterComponent -->
<g id="node4" class="node">
<title>FooterComponent</title>
<polygon fill="#ffffb3" stroke="black" points="433.88,-122 316.12,-122 316.12,-86 433.88,-86 433.88,-122"/>
<text text-anchor="middle" x="375" y="-99.8" font-family="Times,serif" font-size="14.00">FooterComponent</text>
</g>
<!-- FooterComponent&#45;&gt;AppModule -->
<g id="edge4" class="edge">
<title>FooterComponent&#45;&gt;AppModule</title>
<path fill="none" stroke="black" d="M418.06,-122.11C418.06,-122.11 418.06,-140.99 418.06,-140.99"/>
<polygon fill="black" stroke="black" points="414.56,-140.99 418.06,-150.99 421.56,-140.99 414.56,-140.99"/>
</g>
<!-- NavbarComponent -->
<g id="node5" class="node">
<title>NavbarComponent</title>
<polygon fill="#ffffb3" stroke="black" points="298.03,-122 175.97,-122 175.97,-86 298.03,-86 298.03,-122"/>
<text text-anchor="middle" x="237" y="-99.8" font-family="Times,serif" font-size="14.00">NavbarComponent</text>
</g>
<!-- NavbarComponent&#45;&gt;AppModule -->
<g id="edge5" class="edge">
<title>NavbarComponent&#45;&gt;AppModule</title>
<path fill="none" stroke="black" d="M237,-122.02C237,-139.37 237,-163 237,-163 237,-163 392.11,-163 392.11,-163"/>
<polygon fill="black" stroke="black" points="392.11,-166.5 402.11,-163 392.11,-159.5 392.11,-166.5"/>
</g>
<!-- AppComponent  -->
<g id="node8" class="node">
<title>AppComponent </title>
<polygon fill="#80b1d3" stroke="black" points="498.44,-252 389.56,-252 389.56,-216 498.44,-216 498.44,-252"/>
<text text-anchor="middle" x="444" y="-229.8" font-family="Times,serif" font-size="14.00">AppComponent </text>
</g>
<!-- AppModule&#45;&gt;AppComponent  -->
<g id="edge7" class="edge">
<title>AppModule&#45;&gt;AppComponent </title>
<path fill="none" stroke="black" stroke-dasharray="1,5" d="M444,-187.11C444,-187.11 444,-205.99 444,-205.99"/>
<polygon fill="black" stroke="black" points="440.5,-205.99 444,-215.99 447.5,-205.99 440.5,-205.99"/>
</g>
<!-- AppRoutingModule -->
<g id="node7" class="node">
<title>AppRoutingModule</title>
<polygon fill="#8dd3c7" stroke="black" points="152.27,-122 149.27,-126 128.27,-126 125.27,-122 23.73,-122 23.73,-86 152.27,-86 152.27,-122"/>
<text text-anchor="middle" x="88" y="-99.8" font-family="Times,serif" font-size="14.00">AppRoutingModule</text>
</g>
<!-- AppRoutingModule&#45;&gt;AppModule -->
<g id="edge6" class="edge">
<title>AppRoutingModule&#45;&gt;AppModule</title>
<path fill="none" stroke="black" d="M88,-122.28C88,-143.32 88,-175 88,-175 88,-175 392.12,-175 392.12,-175"/>
<polygon fill="black" stroke="black" points="392.12,-178.5 402.12,-175 392.12,-171.5 392.12,-178.5"/>
</g>
</g>
</svg>
